<svg width="14" height="14" viewBox="0 0 14 14" fill="none" xmlns="http://www.w3.org/2000/svg">
<g clip-path="url(#clip0_201_297)">
<path d="M5.8335 8.16656C6.02359 8.36058 6.25049 8.51471 6.5009 8.61993C6.75132 8.72516 7.02021 8.77936 7.29183 8.77936C7.56345 8.77936 7.83234 8.72516 8.08276 8.61993C8.33317 8.51471 8.56007 8.36058 8.75016 8.16656L11.0835 5.83323C11.4703 5.44645 11.6876 4.92188 11.6876 4.37489C11.6876 3.82791 11.4703 3.30334 11.0835 2.91656C10.6967 2.52979 10.1721 2.3125 9.62516 2.3125C9.07818 2.3125 8.5536 2.52979 8.16683 2.91656L7.87516 3.20823" stroke="#5F5F5F" stroke-width="1.16667" stroke-linecap="round" stroke-linejoin="round"/>
<path d="M8.16656 5.8335C7.97647 5.63949 7.74957 5.48535 7.49915 5.38013C7.24874 5.2749 6.97985 5.2207 6.70823 5.2207C6.43661 5.2207 6.16771 5.2749 5.9173 5.38013C5.66689 5.48535 5.43999 5.63949 5.24989 5.8335L2.91656 8.16683C2.52979 8.55361 2.3125 9.07819 2.3125 9.62517C2.3125 10.1721 2.52979 10.6967 2.91656 11.0835C3.30334 11.4703 3.82791 11.6876 4.37489 11.6876C4.92188 11.6876 5.44645 11.4703 5.83323 11.0835L6.12489 10.7918" stroke="#5F5F5F" stroke-width="1.16667" stroke-linecap="round" stroke-linejoin="round"/>
</g>
<defs>
<clipPath id="clip0_201_297">
<rect width="14" height="14" fill="white"/>
</clipPath>
</defs>
</svg>
